<?xml version="1.0" encoding="UTF-8" standalone="no" ?>
<!DOCTYPE svg PUBLIC "-//W3C//DTD SVG 1.1//EN" "http://www.w3.org/Graphics/SVG/1.1/DTD/svg11.dtd">
<svg xmlns="http://www.w3.org/2000/svg" xmlns:xlink="http://www.w3.org/1999/xlink" version="1.1" width="640" height="640" viewBox="0 0 640 640" xml:space="preserve">
<desc>Created with Fabric.js 4.6.0</desc>
<defs>
</defs>
<g transform="matrix(1 0 0 1 370.64 375.76)" id="TTn---rdFWpYV0ScbEx5x"  >
<g style="" vector-effect="non-scaling-stroke"   >
		<g transform="matrix(-1 0 0 -1 0 -29.93)" id="NoTOa77LSV3WsgPJfPKPc"  >
<path style="stroke: rgb(227,230,80); stroke-width: 50; stroke-dasharray: none; stroke-linecap: butt; stroke-dashoffset: 0; stroke-linejoin: miter; stroke-miterlimit: 4; fill: rgb(255,255,255); fill-opacity: 0; fill-rule: nonzero; opacity: 1;" vector-effect="non-scaling-stroke"  transform=" translate(0, 0)" d="M -134.12174 171.4087 L -134.12174 35.59197 C -134.12174 6.714320000000004 -110.71177999999999 -16.695639999999997 -81.83412999999999 -16.695639999999997 L 74.41383000000002 -16.695639999999997 L 74.41383000000002 -16.695639999999997 C 107.38959000000003 -16.695639999999997 134.12173 -43.42778 134.12173 -76.40353999999999 L 134.12173 -133.03411 L 134.12173 -133.03411 C 134.12173 -154.2278 116.94085000000001 -171.40868 95.74716000000001 -171.40868 L 8.347820000000013 -171.40868" stroke-linecap="round" />
</g>
		<g transform="matrix(-0.59 0 0 -0.59 50.06 144.53)" id="CuGA6mMUgOTq2bbM_r-fs"  >
<path style="stroke: rgb(227,230,80); stroke-width: 50; stroke-dasharray: none; stroke-linecap: butt; stroke-dashoffset: 0; stroke-linejoin: miter; stroke-miterlimit: 4; fill: none; fill-rule: nonzero; opacity: 1;" vector-effect="non-scaling-stroke"  transform=" translate(0, 0)" d="M 0 -96.27826 C 53.1456 -96.27826 96.27826 -53.1456 96.27826 0 C 96.27826 53.1456 53.1456 96.27826 0 96.27826 C -53.1456 96.27826 -96.27826 53.1456 -96.27826 0 C -96.27826 -53.1456 -53.1456 -96.27826 0 -96.27826 z" stroke-linecap="round" />
</g>
</g>
</g>
<g transform="matrix(1 0 0 1 269.36 264.39)" id="bIZ7mz7l79rE9kIsXt6Mr"  >
<g style="" vector-effect="non-scaling-stroke"   >
		<g transform="matrix(1 0 0 1 0 30.07)" id="swqQD-FDPGxitGV-K9Csh"  >
<path style="stroke: rgb(66,132,182); stroke-width: 50; stroke-dasharray: none; stroke-linecap: butt; stroke-dashoffset: 0; stroke-linejoin: miter; stroke-miterlimit: 4; fill: rgb(255,255,255); fill-opacity: 0; fill-rule: nonzero; opacity: 1;" vector-effect="non-scaling-stroke"  transform=" translate(0, 0)" d="M -134.12174 171.4087 L -134.12174 35.59197 C -134.12174 6.714320000000004 -110.71177999999999 -16.695639999999997 -81.83412999999999 -16.695639999999997 L 74.41383000000002 -16.695639999999997 L 74.41383000000002 -16.695639999999997 C 107.38959000000003 -16.695639999999997 134.12173 -43.42778 134.12173 -76.40353999999999 L 134.12173 -133.03411 L 134.12173 -133.03411 C 134.12173 -154.2278 116.94085000000001 -171.40868 95.74716000000001 -171.40868 L 8.347820000000013 -171.40868" stroke-linecap="round" />
</g>
		<g transform="matrix(0.59 0 0 0.59 -50.06 -144.39)" id="7UmGtz-jHH0ZM5Iw5mskl"  >
<path style="stroke: rgb(66,132,182); stroke-width: 50; stroke-dasharray: none; stroke-linecap: butt; stroke-dashoffset: 0; stroke-linejoin: miter; stroke-miterlimit: 4; fill: none; fill-rule: nonzero; opacity: 1;" vector-effect="non-scaling-stroke"  transform=" translate(0, 0)" d="M 0 -96.27826 C 53.1456 -96.27826 96.27826 -53.1456 96.27826 0 C 96.27826 53.1456 53.1456 96.27826 0 96.27826 C -53.1456 96.27826 -96.27826 53.1456 -96.27826 0 C -96.27826 -53.1456 -53.1456 -96.27826 0 -96.27826 z" stroke-linecap="round" />
</g>
</g>
</g>
</svg>